<?xml version="1.0" encoding="UTF-8" standalone="no"?>
<svg width="800" height="600" viewBox="0 0 800 600" xmlns="http://www.w3.org/2000/svg" xmlns:xlink="http://www.w3.org/1999/xlink">

<title>Gnuplot</title>
<desc>Produced by GNUPLOT 5.2 patchlevel 2 </desc>

<g id="gnuplot_canvas">

<rect x="0" y="0" width="800" height="600" fill="none"/>
<defs>

	<circle id="gpDot" r="0.5" stroke-width="0.5"/>
	<path id="gpPt0" stroke-width="0.222" stroke="currentColor" d="M-1,0 h2 M0,-1 v2"/>
	<path id="gpPt1" stroke-width="0.222" stroke="currentColor" d="M-1,-1 L1,1 M1,-1 L-1,1"/>
	<path id="gpPt2" stroke-width="0.222" stroke="currentColor" d="M-1,0 L1,0 M0,-1 L0,1 M-1,-1 L1,1 M-1,1 L1,-1"/>
	<rect id="gpPt3" stroke-width="0.222" stroke="currentColor" x="-1" y="-1" width="2" height="2"/>
	<rect id="gpPt4" stroke-width="0.222" stroke="currentColor" fill="currentColor" x="-1" y="-1" width="2" height="2"/>
	<circle id="gpPt5" stroke-width="0.222" stroke="currentColor" cx="0" cy="0" r="1"/>
	<use xlink:href="#gpPt5" id="gpPt6" fill="currentColor" stroke="none"/>
	<path id="gpPt7" stroke-width="0.222" stroke="currentColor" d="M0,-1.33 L-1.33,0.67 L1.33,0.67 z"/>
	<use xlink:href="#gpPt7" id="gpPt8" fill="currentColor" stroke="none"/>
	<use xlink:href="#gpPt7" id="gpPt9" stroke="currentColor" transform="rotate(180)"/>
	<use xlink:href="#gpPt9" id="gpPt10" fill="currentColor" stroke="none"/>
	<use xlink:href="#gpPt3" id="gpPt11" stroke="currentColor" transform="rotate(45)"/>
	<use xlink:href="#gpPt11" id="gpPt12" fill="currentColor" stroke="none"/>
	<path id="gpPt13" stroke-width="0.222" stroke="currentColor" d="M0,1.330 L1.265,0.411 L0.782,-1.067 L-0.782,-1.076 L-1.265,0.411 z"/>
	<use xlink:href="#gpPt13" id="gpPt14" fill="currentColor" stroke="none"/>
	<filter id="textbox" filterUnits="objectBoundingBox" x="0" y="0" height="1" width="1">
	  <feFlood flood-color="white" flood-opacity="1" result="bgnd"/>
	  <feComposite in="SourceGraphic" in2="bgnd" operator="atop"/>
	</filter>
	<filter id="greybox" filterUnits="objectBoundingBox" x="0" y="0" height="1" width="1">
	  <feFlood flood-color="lightgrey" flood-opacity="1" result="grey"/>
	  <feComposite in="SourceGraphic" in2="grey" operator="atop"/>
	</filter>
</defs>
<g fill="none" color="white" stroke="currentColor" stroke-width="1.00" stroke-linecap="butt" stroke-linejoin="miter">
</g>
<g fill="none" color="black" stroke="currentColor" stroke-width="1.00" stroke-linecap="butt" stroke-linejoin="miter">
	<path stroke="black" d="M62.2,515.6 L71.2,515.6 M775.0,515.6 L766.0,515.6  "/>	<g transform="translate(53.9,519.5)" stroke="none" fill="black" font-family="Arial" font-size="12.00" text-anchor="end">
		<text><tspan font-family="Arial"> 0</tspan></text>
	</g>
</g>
<g fill="none" color="black" stroke="currentColor" stroke-width="1.00" stroke-linecap="butt" stroke-linejoin="miter">
	<path stroke="black" d="M62.2,461.3 L71.2,461.3 M775.0,461.3 L766.0,461.3  "/>	<g transform="translate(53.9,465.2)" stroke="none" fill="black" font-family="Arial" font-size="12.00" text-anchor="end">
		<text><tspan font-family="Arial"> 200</tspan></text>
	</g>
</g>
<g fill="none" color="black" stroke="currentColor" stroke-width="1.00" stroke-linecap="butt" stroke-linejoin="miter">
	<path stroke="black" d="M62.2,407.0 L71.2,407.0 M775.0,407.0 L766.0,407.0  "/>	<g transform="translate(53.9,410.9)" stroke="none" fill="black" font-family="Arial" font-size="12.00" text-anchor="end">
		<text><tspan font-family="Arial"> 400</tspan></text>
	</g>
</g>
<g fill="none" color="black" stroke="currentColor" stroke-width="1.00" stroke-linecap="butt" stroke-linejoin="miter">
	<path stroke="black" d="M62.2,352.7 L71.2,352.7 M775.0,352.7 L766.0,352.7  "/>	<g transform="translate(53.9,356.6)" stroke="none" fill="black" font-family="Arial" font-size="12.00" text-anchor="end">
		<text><tspan font-family="Arial"> 600</tspan></text>
	</g>
</g>
<g fill="none" color="black" stroke="currentColor" stroke-width="1.00" stroke-linecap="butt" stroke-linejoin="miter">
	<path stroke="black" d="M62.2,298.4 L71.2,298.4 M775.0,298.4 L766.0,298.4  "/>	<g transform="translate(53.9,302.3)" stroke="none" fill="black" font-family="Arial" font-size="12.00" text-anchor="end">
		<text><tspan font-family="Arial"> 800</tspan></text>
	</g>
</g>
<g fill="none" color="black" stroke="currentColor" stroke-width="1.00" stroke-linecap="butt" stroke-linejoin="miter">
	<path stroke="black" d="M62.2,244.1 L71.2,244.1 M775.0,244.1 L766.0,244.1  "/>	<g transform="translate(53.9,248.0)" stroke="none" fill="black" font-family="Arial" font-size="12.00" text-anchor="end">
		<text><tspan font-family="Arial"> 1000</tspan></text>
	</g>
</g>
<g fill="none" color="black" stroke="currentColor" stroke-width="1.00" stroke-linecap="butt" stroke-linejoin="miter">
	<path stroke="black" d="M62.2,189.8 L71.2,189.8 M775.0,189.8 L766.0,189.8  "/>	<g transform="translate(53.9,193.7)" stroke="none" fill="black" font-family="Arial" font-size="12.00" text-anchor="end">
		<text><tspan font-family="Arial"> 1200</tspan></text>
	</g>
</g>
<g fill="none" color="black" stroke="currentColor" stroke-width="1.00" stroke-linecap="butt" stroke-linejoin="miter">
	<path stroke="black" d="M62.2,135.5 L71.2,135.5 M775.0,135.5 L766.0,135.5  "/>	<g transform="translate(53.9,139.4)" stroke="none" fill="black" font-family="Arial" font-size="12.00" text-anchor="end">
		<text><tspan font-family="Arial"> 1400</tspan></text>
	</g>
</g>
<g fill="none" color="black" stroke="currentColor" stroke-width="1.00" stroke-linecap="butt" stroke-linejoin="miter">
	<path stroke="black" d="M62.2,81.2 L71.2,81.2 M775.0,81.2 L766.0,81.2  "/>	<g transform="translate(53.9,85.1)" stroke="none" fill="black" font-family="Arial" font-size="12.00" text-anchor="end">
		<text><tspan font-family="Arial"> 1600</tspan></text>
	</g>
</g>
<g fill="none" color="black" stroke="currentColor" stroke-width="1.00" stroke-linecap="butt" stroke-linejoin="miter">
	<path stroke="black" d="M62.2,515.6 L62.2,506.6  "/>	<g transform="translate(66.1,523.9) rotate(270)" stroke="none" fill="black" font-family="Arial" font-size="12.00" text-anchor="end">
		<text><tspan font-family="Arial">20180701</tspan></text>
	</g>
</g>
<g fill="none" color="black" stroke="currentColor" stroke-width="1.00" stroke-linecap="butt" stroke-linejoin="miter">
	<path stroke="black" d="M73.9,515.6 L73.9,511.1 M85.6,515.6 L85.6,506.6  "/>	<g transform="translate(89.5,523.9) rotate(270)" stroke="none" fill="black" font-family="Arial" font-size="12.00" text-anchor="end">
		<text><tspan font-family="Arial">20180715</tspan></text>
	</g>
</g>
<g fill="none" color="black" stroke="currentColor" stroke-width="1.00" stroke-linecap="butt" stroke-linejoin="miter">
	<path stroke="black" d="M97.3,515.6 L97.3,511.1 M108.9,515.6 L108.9,506.6  "/>	<g transform="translate(112.8,523.9) rotate(270)" stroke="none" fill="black" font-family="Arial" font-size="12.00" text-anchor="end">
		<text><tspan font-family="Arial">20180729</tspan></text>
	</g>
</g>
<g fill="none" color="black" stroke="currentColor" stroke-width="1.00" stroke-linecap="butt" stroke-linejoin="miter">
	<path stroke="black" d="M120.6,515.6 L120.6,511.1 M132.3,515.6 L132.3,506.6  "/>	<g transform="translate(136.2,523.9) rotate(270)" stroke="none" fill="black" font-family="Arial" font-size="12.00" text-anchor="end">
		<text><tspan font-family="Arial">20180812</tspan></text>
	</g>
</g>
<g fill="none" color="black" stroke="currentColor" stroke-width="1.00" stroke-linecap="butt" stroke-linejoin="miter">
	<path stroke="black" d="M144.0,515.6 L144.0,511.1 M155.7,515.6 L155.7,506.6  "/>	<g transform="translate(159.6,523.9) rotate(270)" stroke="none" fill="black" font-family="Arial" font-size="12.00" text-anchor="end">
		<text><tspan font-family="Arial">20180826</tspan></text>
	</g>
</g>
<g fill="none" color="black" stroke="currentColor" stroke-width="1.00" stroke-linecap="butt" stroke-linejoin="miter">
	<path stroke="black" d="M167.4,515.6 L167.4,511.1 M179.1,515.6 L179.1,506.6  "/>	<g transform="translate(183.0,523.9) rotate(270)" stroke="none" fill="black" font-family="Arial" font-size="12.00" text-anchor="end">
		<text><tspan font-family="Arial">20180909</tspan></text>
	</g>
</g>
<g fill="none" color="black" stroke="currentColor" stroke-width="1.00" stroke-linecap="butt" stroke-linejoin="miter">
	<path stroke="black" d="M190.7,515.6 L190.7,511.1 M202.4,515.6 L202.4,506.6  "/>	<g transform="translate(206.3,523.9) rotate(270)" stroke="none" fill="black" font-family="Arial" font-size="12.00" text-anchor="end">
		<text><tspan font-family="Arial">20180923</tspan></text>
	</g>
</g>
<g fill="none" color="black" stroke="currentColor" stroke-width="1.00" stroke-linecap="butt" stroke-linejoin="miter">
	<path stroke="black" d="M214.1,515.6 L214.1,511.1 M225.8,515.6 L225.8,506.6  "/>	<g transform="translate(229.7,523.9) rotate(270)" stroke="none" fill="black" font-family="Arial" font-size="12.00" text-anchor="end">
		<text><tspan font-family="Arial">20181007</tspan></text>
	</g>
</g>
<g fill="none" color="black" stroke="currentColor" stroke-width="1.00" stroke-linecap="butt" stroke-linejoin="miter">
	<path stroke="black" d="M237.5,515.6 L237.5,511.1 M249.2,515.6 L249.2,506.6  "/>	<g transform="translate(253.1,523.9) rotate(270)" stroke="none" fill="black" font-family="Arial" font-size="12.00" text-anchor="end">
		<text><tspan font-family="Arial">20181021</tspan></text>
	</g>
</g>
<g fill="none" color="black" stroke="currentColor" stroke-width="1.00" stroke-linecap="butt" stroke-linejoin="miter">
	<path stroke="black" d="M260.8,515.6 L260.8,511.1 M272.5,515.6 L272.5,506.6  "/>	<g transform="translate(276.4,523.9) rotate(270)" stroke="none" fill="black" font-family="Arial" font-size="12.00" text-anchor="end">
		<text><tspan font-family="Arial">20181104</tspan></text>
	</g>
</g>
<g fill="none" color="black" stroke="currentColor" stroke-width="1.00" stroke-linecap="butt" stroke-linejoin="miter">
	<path stroke="black" d="M284.2,515.6 L284.2,511.1 M295.9,515.6 L295.9,506.6  "/>	<g transform="translate(299.8,523.9) rotate(270)" stroke="none" fill="black" font-family="Arial" font-size="12.00" text-anchor="end">
		<text><tspan font-family="Arial">20181118</tspan></text>
	</g>
</g>
<g fill="none" color="black" stroke="currentColor" stroke-width="1.00" stroke-linecap="butt" stroke-linejoin="miter">
	<path stroke="black" d="M307.6,515.6 L307.6,511.1 M319.3,515.6 L319.3,506.6  "/>	<g transform="translate(323.2,523.9) rotate(270)" stroke="none" fill="black" font-family="Arial" font-size="12.00" text-anchor="end">
		<text><tspan font-family="Arial">20181202</tspan></text>
	</g>
</g>
<g fill="none" color="black" stroke="currentColor" stroke-width="1.00" stroke-linecap="butt" stroke-linejoin="miter">
	<path stroke="black" d="M331.0,515.6 L331.0,511.1 M342.6,515.6 L342.6,506.6  "/>	<g transform="translate(346.5,523.9) rotate(270)" stroke="none" fill="black" font-family="Arial" font-size="12.00" text-anchor="end">
		<text><tspan font-family="Arial">20181216</tspan></text>
	</g>
</g>
<g fill="none" color="black" stroke="currentColor" stroke-width="1.00" stroke-linecap="butt" stroke-linejoin="miter">
	<path stroke="black" d="M354.3,515.6 L354.3,511.1 M366.0,515.6 L366.0,506.6  "/>	<g transform="translate(369.9,523.9) rotate(270)" stroke="none" fill="black" font-family="Arial" font-size="12.00" text-anchor="end">
		<text><tspan font-family="Arial">20181230</tspan></text>
	</g>
</g>
<g fill="none" color="black" stroke="currentColor" stroke-width="1.00" stroke-linecap="butt" stroke-linejoin="miter">
	<path stroke="black" d="M377.7,515.6 L377.7,511.1 M389.4,515.6 L389.4,506.6  "/>	<g transform="translate(393.3,523.9) rotate(270)" stroke="none" fill="black" font-family="Arial" font-size="12.00" text-anchor="end">
		<text><tspan font-family="Arial">20190113</tspan></text>
	</g>
</g>
<g fill="none" color="black" stroke="currentColor" stroke-width="1.00" stroke-linecap="butt" stroke-linejoin="miter">
	<path stroke="black" d="M401.1,515.6 L401.1,511.1 M412.8,515.6 L412.8,506.6  "/>	<g transform="translate(416.7,523.9) rotate(270)" stroke="none" fill="black" font-family="Arial" font-size="12.00" text-anchor="end">
		<text><tspan font-family="Arial">20190127</tspan></text>
	</g>
</g>
<g fill="none" color="black" stroke="currentColor" stroke-width="1.00" stroke-linecap="butt" stroke-linejoin="miter">
	<path stroke="black" d="M424.4,515.6 L424.4,511.1 M436.1,515.6 L436.1,506.6  "/>	<g transform="translate(440.0,523.9) rotate(270)" stroke="none" fill="black" font-family="Arial" font-size="12.00" text-anchor="end">
		<text><tspan font-family="Arial">20190210</tspan></text>
	</g>
</g>
<g fill="none" color="black" stroke="currentColor" stroke-width="1.00" stroke-linecap="butt" stroke-linejoin="miter">
	<path stroke="black" d="M447.8,515.6 L447.8,511.1 M459.5,515.6 L459.5,506.6  "/>	<g transform="translate(463.4,523.9) rotate(270)" stroke="none" fill="black" font-family="Arial" font-size="12.00" text-anchor="end">
		<text><tspan font-family="Arial">20190224</tspan></text>
	</g>
</g>
<g fill="none" color="black" stroke="currentColor" stroke-width="1.00" stroke-linecap="butt" stroke-linejoin="miter">
	<path stroke="black" d="M471.2,515.6 L471.2,511.1 M482.9,515.6 L482.9,506.6  "/>	<g transform="translate(486.8,523.9) rotate(270)" stroke="none" fill="black" font-family="Arial" font-size="12.00" text-anchor="end">
		<text><tspan font-family="Arial">20190310</tspan></text>
	</g>
</g>
<g fill="none" color="black" stroke="currentColor" stroke-width="1.00" stroke-linecap="butt" stroke-linejoin="miter">
	<path stroke="black" d="M494.6,515.6 L494.6,511.1 M506.2,515.6 L506.2,506.6  "/>	<g transform="translate(510.1,523.9) rotate(270)" stroke="none" fill="black" font-family="Arial" font-size="12.00" text-anchor="end">
		<text><tspan font-family="Arial">20190324</tspan></text>
	</g>
</g>
<g fill="none" color="black" stroke="currentColor" stroke-width="1.00" stroke-linecap="butt" stroke-linejoin="miter">
	<path stroke="black" d="M517.9,515.6 L517.9,511.1 M529.6,515.6 L529.6,506.6  "/>	<g transform="translate(533.5,523.9) rotate(270)" stroke="none" fill="black" font-family="Arial" font-size="12.00" text-anchor="end">
		<text><tspan font-family="Arial">20190407</tspan></text>
	</g>
</g>
<g fill="none" color="black" stroke="currentColor" stroke-width="1.00" stroke-linecap="butt" stroke-linejoin="miter">
	<path stroke="black" d="M541.3,515.6 L541.3,511.1 M553.0,515.6 L553.0,506.6  "/>	<g transform="translate(556.9,523.9) rotate(270)" stroke="none" fill="black" font-family="Arial" font-size="12.00" text-anchor="end">
		<text><tspan font-family="Arial">20190421</tspan></text>
	</g>
</g>
<g fill="none" color="black" stroke="currentColor" stroke-width="1.00" stroke-linecap="butt" stroke-linejoin="miter">
	<path stroke="black" d="M564.7,515.6 L564.7,511.1 M576.4,515.6 L576.4,506.6  "/>	<g transform="translate(580.3,523.9) rotate(270)" stroke="none" fill="black" font-family="Arial" font-size="12.00" text-anchor="end">
		<text><tspan font-family="Arial">20190505</tspan></text>
	</g>
</g>
<g fill="none" color="black" stroke="currentColor" stroke-width="1.00" stroke-linecap="butt" stroke-linejoin="miter">
	<path stroke="black" d="M588.0,515.6 L588.0,511.1 M599.7,515.6 L599.7,506.6  "/>	<g transform="translate(603.6,523.9) rotate(270)" stroke="none" fill="black" font-family="Arial" font-size="12.00" text-anchor="end">
		<text><tspan font-family="Arial">20190519</tspan></text>
	</g>
</g>
<g fill="none" color="black" stroke="currentColor" stroke-width="1.00" stroke-linecap="butt" stroke-linejoin="miter">
	<path stroke="black" d="M611.4,515.6 L611.4,511.1 M623.1,515.6 L623.1,506.6  "/>	<g transform="translate(627.0,523.9) rotate(270)" stroke="none" fill="black" font-family="Arial" font-size="12.00" text-anchor="end">
		<text><tspan font-family="Arial">20190602</tspan></text>
	</g>
</g>
<g fill="none" color="black" stroke="currentColor" stroke-width="1.00" stroke-linecap="butt" stroke-linejoin="miter">
	<path stroke="black" d="M634.8,515.6 L634.8,511.1 M646.5,515.6 L646.5,506.6  "/>	<g transform="translate(650.4,523.9) rotate(270)" stroke="none" fill="black" font-family="Arial" font-size="12.00" text-anchor="end">
		<text><tspan font-family="Arial">20190616</tspan></text>
	</g>
</g>
<g fill="none" color="black" stroke="currentColor" stroke-width="1.00" stroke-linecap="butt" stroke-linejoin="miter">
	<path stroke="black" d="M658.1,515.6 L658.1,511.1 M669.8,515.6 L669.8,506.6  "/>	<g transform="translate(673.7,523.9) rotate(270)" stroke="none" fill="black" font-family="Arial" font-size="12.00" text-anchor="end">
		<text><tspan font-family="Arial">20190630</tspan></text>
	</g>
</g>
<g fill="none" color="black" stroke="currentColor" stroke-width="1.00" stroke-linecap="butt" stroke-linejoin="miter">
	<path stroke="black" d="M681.5,515.6 L681.5,511.1 M693.2,515.6 L693.2,506.6  "/>	<g transform="translate(697.1,523.9) rotate(270)" stroke="none" fill="black" font-family="Arial" font-size="12.00" text-anchor="end">
		<text><tspan font-family="Arial">20190714</tspan></text>
	</g>
</g>
<g fill="none" color="black" stroke="currentColor" stroke-width="1.00" stroke-linecap="butt" stroke-linejoin="miter">
	<path stroke="black" d="M704.9,515.6 L704.9,511.1 M716.6,515.6 L716.6,506.6  "/>	<g transform="translate(720.5,523.9) rotate(270)" stroke="none" fill="black" font-family="Arial" font-size="12.00" text-anchor="end">
		<text><tspan font-family="Arial">20190728</tspan></text>
	</g>
</g>
<g fill="none" color="black" stroke="currentColor" stroke-width="1.00" stroke-linecap="butt" stroke-linejoin="miter">
	<path stroke="black" d="M728.3,515.6 L728.3,511.1 M739.9,515.6 L739.9,506.6  "/>	<g transform="translate(743.8,523.9) rotate(270)" stroke="none" fill="black" font-family="Arial" font-size="12.00" text-anchor="end">
		<text><tspan font-family="Arial">20190811</tspan></text>
	</g>
</g>
<g fill="none" color="black" stroke="currentColor" stroke-width="1.00" stroke-linecap="butt" stroke-linejoin="miter">
	<path stroke="black" d="M751.6,515.6 L751.6,511.1 M763.3,515.6 L763.3,506.6  "/>	<g transform="translate(767.2,523.9) rotate(270)" stroke="none" fill="black" font-family="Arial" font-size="12.00" text-anchor="end">
		<text><tspan font-family="Arial">20190825</tspan></text>
	</g>
</g>
<g fill="none" color="black" stroke="currentColor" stroke-width="1.00" stroke-linecap="butt" stroke-linejoin="miter">
	<path stroke="black" d="M775.0,515.6 L775.0,511.1  "/></g>
<g fill="none" color="black" stroke="currentColor" stroke-width="1.00" stroke-linecap="butt" stroke-linejoin="miter">
	<path stroke="black" d="M62.2,54.1 L62.2,515.6 L775.0,515.6 L775.0,54.1 L62.2,54.1 Z  "/></g>
<g fill="none" color="black" stroke="currentColor" stroke-width="1.00" stroke-linecap="butt" stroke-linejoin="miter">
	<g transform="translate(418.6,31.0)" stroke="none" fill="black" font-family="Arial" font-size="12.00" text-anchor="middle">
		<text><tspan font-family="Arial">ASL Digital Burnup Chart</tspan></text>
	</g>
</g>
	<g id="gnuplot_plot_1"><title>Done</title>
<g fill="none" color="white" stroke="black" stroke-width="2.00" stroke-linecap="butt" stroke-linejoin="miter">
</g>
<g fill="none" color="black" stroke="currentColor" stroke-width="2.00" stroke-linecap="butt" stroke-linejoin="miter">
	<g transform="translate(707.9,76.0)" stroke="none" fill="black" font-family="Arial" font-size="12.00" text-anchor="end">
		<text><tspan font-family="Arial">Done</tspan></text>
	</g>
</g>
<g fill="none" color="black" stroke="currentColor" stroke-width="2.00" stroke-linecap="butt" stroke-linejoin="miter">
	<path stroke="rgb(229,  30,  16)" d="M716.2,72.1 L758.4,72.1 M70.5,515.6 L93.9,515.6 L105.6,514.2 L113.9,488.2  "/></g>
	</g>
	<g id="gnuplot_plot_2"><title>Expected Done</title>
<g fill="none" color="black" stroke="currentColor" stroke-width="2.00" stroke-linecap="butt" stroke-linejoin="miter">
	<g transform="translate(707.9,94.0)" stroke="none" fill="black" font-family="Arial" font-size="12.00" text-anchor="end">
		<text><tspan font-family="Arial">Expected Done</tspan></text>
	</g>
</g>
<g fill="none" color="black" stroke="currentColor" stroke-width="2.00" stroke-linecap="butt" stroke-linejoin="miter">
	<path stroke="rgb(230, 159,   0)" stroke-dasharray=" 2,4" d="M716.2,90.1 L758.4,90.1 M80.8,515.6 L83.8,514.2 L91.0,510.8 L98.2,507.4 L105.4,503.9 L112.6,500.5   L119.8,497.1 L127.0,493.7 L134.2,490.3 L141.4,486.9 L148.6,483.5 L155.8,480.0 L163.0,476.6 L170.2,473.2   L177.4,469.8 L184.6,466.4 L191.8,463.0 L199.0,459.6 L206.2,456.2 L213.4,452.7 L220.6,449.3 L227.8,445.9   L235.0,442.5 L242.2,439.1 L249.4,435.7 L256.6,432.3 L263.8,428.9 L271.0,425.4 L278.2,422.0 L285.4,418.6   L292.6,415.2 L299.8,411.8 L307.0,408.4 L314.2,405.0 L321.4,401.6 L328.6,398.1 L335.8,394.7 L343.0,391.3   L350.2,387.9 L357.4,384.5 L364.6,381.1 L371.8,377.7 L379.0,374.2 L386.2,370.8 L393.4,367.4 L400.6,364.0   L407.8,360.6 L415.0,357.2 L422.2,353.8 L429.4,350.4 L436.6,346.9 L443.8,343.5 L451.0,340.1 L458.2,336.7   L465.4,333.3 L472.6,329.9 L479.8,326.5 L487.0,323.1 L494.2,319.6 L501.4,316.2 L508.6,312.8 L515.8,309.4   L523.0,306.0 L530.2,302.6 L537.4,299.2 L544.6,295.8 L551.8,292.3 L559.0,288.9 L566.2,285.5 L573.4,282.1   L580.6,278.7 L587.8,275.3 L595.0,271.9 L602.2,268.5 L609.4,265.0 L616.6,261.6 L623.8,258.2 L631.0,254.8   L638.2,251.4 L645.4,248.0 L652.6,244.6 L659.8,241.1 L667.0,237.7 L674.2,234.3 L681.4,230.9 L688.6,227.5   L695.8,224.1 L703.0,220.7 L710.2,217.3 L717.4,213.8 L724.6,210.4 L731.8,207.0 L739.0,203.6 L746.2,200.2   L753.4,196.8 L760.6,193.4 L767.8,190.0 L775.0,186.5  "/></g>
	</g>
	<g id="gnuplot_plot_3"><title>Expected Backlog</title>
<g fill="none" color="black" stroke="currentColor" stroke-width="2.00" stroke-linecap="butt" stroke-linejoin="miter">
	<g transform="translate(707.9,112.0)" stroke="none" fill="black" font-family="Arial" font-size="12.00" text-anchor="end">
		<text><tspan font-family="Arial">Expected Backlog</tspan></text>
	</g>
</g>
<g fill="none" color="black" stroke="currentColor" stroke-width="2.00" stroke-linecap="butt" stroke-linejoin="miter">
	<path stroke="rgb( 86, 180, 233)" stroke-dasharray=" 8,4,2,4" d="M716.2,108.1 L758.4,108.1 M62.2,201.1 L69.4,201.0 L76.6,200.9 L83.8,200.8 L91.0,200.7 L98.2,200.7   L105.4,200.6 L112.6,200.5 L119.8,200.4 L127.0,200.4 L134.2,200.3 L141.4,200.2 L148.6,200.1 L155.8,200.1   L163.0,200.0 L170.2,199.9 L177.4,199.8 L184.6,199.8 L191.8,199.7 L199.0,199.6 L206.2,199.5 L213.4,199.4   L220.6,199.4 L227.8,199.3 L235.0,199.2 L242.2,199.1 L249.4,199.1 L256.6,199.0 L263.8,198.9 L271.0,198.8   L278.2,198.8 L285.4,198.7 L292.6,198.6 L299.8,198.5 L307.0,198.5 L314.2,198.4 L321.4,198.3 L328.6,198.2   L335.8,198.1 L343.0,198.1 L350.2,198.0 L357.4,197.9 L364.6,197.8 L371.8,197.8 L379.0,197.7 L386.2,197.6   L393.4,197.5 L400.6,197.5 L407.8,197.4 L415.0,197.3 L422.2,197.2 L429.4,197.2 L436.6,197.1 L443.8,197.0   L451.0,196.9 L458.2,196.8 L465.4,196.8 L472.6,196.7 L479.8,196.6 L487.0,196.5 L494.2,196.5 L501.4,196.4   L508.6,196.3 L515.8,196.2 L523.0,196.2 L530.2,196.1 L537.4,196.0 L544.6,195.9 L551.8,195.9 L559.0,195.8   L566.2,195.7 L573.4,195.6 L580.6,195.5 L587.8,195.5 L595.0,195.4 L602.2,195.3 L609.4,195.2 L616.6,195.2   L623.8,195.1 L631.0,195.0 L638.2,194.9 L645.4,194.9 L652.6,194.8 L659.8,194.7 L667.0,194.6 L674.2,194.5   L681.4,194.5 L688.6,194.4 L695.8,194.3 L703.0,194.2 L710.2,194.2 L717.4,194.1 L724.6,194.0 L731.8,193.9   L739.0,193.9 L746.2,193.8 L753.4,193.7 L760.6,193.6 L767.8,193.6 L775.0,193.5  "/></g>
	</g>
	<g id="gnuplot_plot_4"><title>Total Backlog</title>
<g fill="none" color="black" stroke="currentColor" stroke-width="2.00" stroke-linecap="butt" stroke-linejoin="miter">
	<g transform="translate(707.9,130.0)" stroke="none" fill="black" font-family="Arial" font-size="12.00" text-anchor="end">
		<text><tspan font-family="Arial">Total Backlog</tspan></text>
	</g>
</g>
<g fill="none" color="black" stroke="currentColor" stroke-width="2.00" stroke-linecap="butt" stroke-linejoin="miter">
	<path stroke="rgb(  0, 114, 178)" d="M716.2,126.1 L758.4,126.1 M70.5,200.2 L93.9,200.2 L105.6,200.2 L113.9,202.3  "/></g>
	</g>
<g fill="none" color="black" stroke="currentColor" stroke-width="2.00" stroke-linecap="butt" stroke-linejoin="miter">
</g>
<g fill="none" color="black" stroke="black" stroke-width="1.00" stroke-linecap="butt" stroke-linejoin="miter">
</g>
<g fill="none" color="black" stroke="currentColor" stroke-width="1.00" stroke-linecap="butt" stroke-linejoin="miter">
	<path stroke="black" d="M62.2,54.1 L62.2,515.6 L775.0,515.6 L775.0,54.1 L62.2,54.1 Z  "/></g>
<g fill="none" color="black" stroke="currentColor" stroke-width="1.00" stroke-linecap="butt" stroke-linejoin="miter">
</g>
</g>
</svg>